<svg xmlns="http://www.w3.org/2000/svg" width="192" height="41" viewBox="0 0 192 41" fill="none"><path d="M97.7891 33V6.27148H102.736V28.7832H114.656V33H97.7891ZM116.732 10.9531V5.90625H121.646V10.9531H116.732ZM116.865 33V13.4434H121.547V33H116.865ZM123.656 13.4434H128.802L131.392 22.7734C131.702 23.9909 132.211 26.0605 132.919 28.9824H133.019C133.594 26.7246 134.126 24.6549 134.613 22.7734L137.136 13.4434H142.316L135.642 33H130.296L123.656 13.4434ZM144.292 10.9531V5.90625H149.206V10.9531H144.292ZM144.425 33V13.4434H149.106V33H144.425ZM153.108 33V13.4434H157.69V15.6016C158.022 14.9375 158.62 14.3177 159.483 13.7422C160.369 13.1445 161.509 12.8457 162.903 12.8457C167.175 12.8457 169.311 15.3802 169.311 20.4492V33H164.596V21.0137C164.596 19.5085 164.364 18.446 163.899 17.8262C163.434 17.2064 162.748 16.8965 161.841 16.8965C160.69 16.8965 159.738 17.3613 158.985 18.291C158.232 19.2207 157.856 20.3828 157.856 21.7773V33H153.108ZM176.633 22.8398C176.633 24.7214 176.987 26.1823 177.696 27.2227C178.426 28.2409 179.378 28.75 180.551 28.75C181.724 28.75 182.654 28.2409 183.34 27.2227C184.026 26.2044 184.37 24.7324 184.37 22.8066C184.37 20.903 184.015 19.4421 183.307 18.4238C182.621 17.4056 181.713 16.8965 180.584 16.8965C179.367 16.8965 178.404 17.4277 177.696 18.4902C176.987 19.5306 176.633 20.9805 176.633 22.8398ZM171.786 22.873C171.786 19.8184 172.549 17.3835 174.077 15.5684C175.626 13.7533 177.585 12.8457 179.954 12.8457C181.06 12.8457 181.99 13.1113 182.743 13.6426C183.517 14.1738 184.071 14.7604 184.403 15.4023V13.4434H189.151V30.1777C189.151 33.8743 188.409 36.597 186.926 38.3457C185.465 40.0944 183.23 40.9688 180.219 40.9688C176.855 40.9688 174.265 39.6849 172.45 37.1172L175.571 34.9258C176.81 36.431 178.382 37.1836 180.286 37.1836C181.392 37.1836 182.322 36.763 183.075 35.9219C183.849 35.0807 184.281 33.9961 184.37 32.668C184.414 31.9596 184.436 31.2734 184.436 30.6094C184.015 31.2513 183.396 31.7826 182.577 32.2031C181.758 32.6016 180.927 32.8008 180.086 32.8008C177.607 32.8008 175.604 31.9043 174.077 30.1113C172.549 28.2962 171.786 25.8835 171.786 22.873Z" fill="#222"></path><rect width="94" height="40" fill="#222222"></rect><path d="M5.29492 19.6191C5.29492 15.5462 6.40169 12.2038 8.61523 9.5918C10.8288 6.97982 13.7839 5.67383 17.4805 5.67383C18.6315 5.67383 19.7161 5.83984 20.7344 6.17188C21.7526 6.50391 22.6048 6.91341 23.291 7.40039C23.9993 7.86523 24.6413 8.41862 25.2168 9.06055C25.8145 9.68034 26.2682 10.2448 26.5781 10.7539C26.888 11.263 27.1536 11.7721 27.375 12.2812L23.125 13.6426C22.7708 13.1113 22.4609 12.6797 22.1953 12.3477C21.9297 12.0156 21.5645 11.6393 21.0996 11.2188C20.6348 10.776 20.1035 10.4551 19.5059 10.2559C18.9082 10.0345 18.2441 9.92383 17.5137 9.92383C15.278 9.92383 13.5293 10.8092 12.2676 12.5801C11.028 14.3288 10.4082 16.6751 10.4082 19.6191C10.4082 22.5853 11.0501 24.9538 12.334 26.7246C13.6178 28.4954 15.278 29.3809 17.3145 29.3809C19.041 29.3809 20.4023 28.9049 21.3984 27.9531C22.3945 27.0013 22.9811 25.7617 23.1582 24.2344C23.2467 22.9948 23.291 22.2975 23.291 22.1426H17.0156V17.8926H28.0723V33H24.6855L24.2207 30.6094C22.7155 32.6016 20.3581 33.5977 17.1484 33.5977C13.7617 33.5977 10.9395 32.3359 8.68164 29.8125C6.42383 27.2891 5.29492 23.8913 5.29492 19.6191ZM35.0622 23.2383C35.0622 25.4518 35.4828 27.0566 36.3239 28.0527C37.1872 29.0488 38.1722 29.5469 39.279 29.5469C40.3636 29.5469 41.3376 29.0488 42.2009 28.0527C43.0863 27.0345 43.529 25.4297 43.529 23.2383C43.529 21.0247 43.0973 19.4199 42.2341 18.4238C41.3708 17.4056 40.3858 16.8965 39.279 16.8965C38.1722 16.8965 37.1872 17.3945 36.3239 18.3906C35.4828 19.3867 35.0622 21.0026 35.0622 23.2383ZM30.1813 23.2383C30.1813 20.3385 30.945 17.8815 32.4723 15.8672C33.9997 13.8529 36.2686 12.8457 39.279 12.8457C41.3154 12.8457 43.042 13.3548 44.4587 14.373C45.8753 15.3913 46.8825 16.6641 47.4802 18.1914C48.0778 19.6966 48.3766 21.3789 48.3766 23.2383C48.3766 24.1237 48.2992 25.0091 48.1442 25.8945C47.9893 26.7578 47.6904 27.6654 47.2477 28.6172C46.8272 29.569 46.2848 30.4102 45.6208 31.1406C44.9789 31.849 44.1045 32.4355 42.9977 32.9004C41.9131 33.3652 40.6735 33.5977 39.279 33.5977C37.9066 33.5977 36.6781 33.3763 35.5934 32.9336C34.5088 32.4909 33.6345 31.9264 32.9704 31.2402C32.3063 30.5319 31.7529 29.7129 31.3102 28.7832C30.8897 27.8314 30.5908 26.9128 30.4137 26.0273C30.2588 25.1198 30.1813 24.1901 30.1813 23.2383ZM54.8021 23.2383C54.8021 25.4518 55.2227 27.0566 56.0638 28.0527C56.9271 29.0488 57.9121 29.5469 59.0189 29.5469C60.1035 29.5469 61.0775 29.0488 61.9408 28.0527C62.8262 27.0345 63.2689 25.4297 63.2689 23.2383C63.2689 21.0247 62.8373 19.4199 61.974 18.4238C61.1107 17.4056 60.1257 16.8965 59.0189 16.8965C57.9121 16.8965 56.9271 17.3945 56.0638 18.3906C55.2227 19.3867 54.8021 21.0026 54.8021 23.2383ZM49.9212 23.2383C49.9212 20.3385 50.6849 17.8815 52.2123 15.8672C53.7396 13.8529 56.0085 12.8457 59.0189 12.8457C61.0554 12.8457 62.7819 13.3548 64.1986 14.373C65.6153 15.3913 66.6224 16.6641 67.2201 18.1914C67.8177 19.6966 68.1166 21.3789 68.1166 23.2383C68.1166 24.1237 68.0391 25.0091 67.8841 25.8945C67.7292 26.7578 67.4304 27.6654 66.9877 28.6172C66.5671 29.569 66.0248 30.4102 65.3607 31.1406C64.7188 31.849 63.8444 32.4355 62.7377 32.9004C61.653 33.3652 60.4134 33.5977 59.0189 33.5977C57.6465 33.5977 56.418 33.3763 55.3334 32.9336C54.2487 32.4909 53.3744 31.9264 52.7103 31.2402C52.0462 30.5319 51.4929 29.7129 51.0502 28.7832C50.6296 27.8314 50.3308 26.9128 50.1537 26.0273C49.9987 25.1198 49.9212 24.1901 49.9212 23.2383ZM69.6612 23.2051C69.6612 19.9733 70.4359 17.4388 71.9854 15.6016C73.557 13.7643 75.5713 12.8457 78.0284 12.8457C79.0687 12.8457 79.9873 13.0892 80.7842 13.5762C81.6032 14.041 82.2341 14.5944 82.6768 15.2363V5.4082H87.4248V33H82.8096V30.7754C82.389 31.5501 81.736 32.2142 80.8506 32.7676C79.9873 33.321 79.0355 33.5977 77.9952 33.5977C76.9548 33.5977 75.9587 33.3984 75.0069 33C74.0551 32.6237 73.1696 32.0482 72.3506 31.2734C71.5316 30.4766 70.8786 29.3919 70.3916 28.0195C69.9047 26.625 69.6612 25.0202 69.6612 23.2051ZM74.542 23.2051C74.542 25.2415 74.9073 26.8132 75.6377 27.9199C76.3903 29.0046 77.4086 29.5469 78.6924 29.5469C79.9099 29.5469 80.8838 28.9824 81.6143 27.8535C82.3669 26.7246 82.7432 25.1751 82.7432 23.2051C82.7432 21.3236 82.389 19.8073 81.6807 18.6562C80.9724 17.4831 79.9763 16.8965 78.6924 16.8965C77.3422 16.8965 76.3129 17.472 75.6045 18.623C74.8962 19.7741 74.542 21.3014 74.542 23.2051Z" fill="white"></path></svg>